<?xml version="1.0" encoding="UTF-8"?>
<svg version="1.1" xmlns="http://www.w3.org/2000/svg" width="1024" height="249">
<path d="M0 0 C337.92 0 675.84 0 1024 0 C1024 82.17 1024 164.34 1024 249 C686.08 249 348.16 249 0 249 C0 166.83 0 84.66 0 0 Z " fill="#FDFDFD" transform="translate(0,0)"/>
<path d="M0 0 C2.87029869 1.79393668 4.49131638 2.98263276 6 6 C6.34708476 11.29304255 6.51351894 14.73358414 3 19 C-0.14268673 21.00295699 -1.99276567 21.04167098 -5.625 20.5625 C-10.5657593 20.43094132 -12.73040266 21.92030179 -16.375 25.1875 C-19.51554874 28.27178483 -22.29815772 31.52708401 -25 35 C-23.79618552 37.49361571 -22.54571278 39.68143083 -21 42 C-20.195625 41.175 -19.39125 40.35 -18.5625 39.5 C-15.19195375 36.70452325 -12.44437276 36.24618046 -8.125 36.5234375 C-4.43861662 37.35016319 -3.01588256 38.87863345 -1 42 C-0.24874188 44.86633866 -0.19875996 47.14089886 -1 50 C-3.58128528 53.09754234 -5.10749053 54.6229483 -9.0390625 55.40625 C-13.4427554 55.60416878 -15.70690182 54.75156648 -19 52 C-18.9779248 53.31605225 -18.95584961 54.63210449 -18.93310547 55.98803711 C-18.86401479 60.90304139 -18.86129935 65.81628961 -18.87792969 70.73168945 C-18.8759912 72.85287526 -18.85640439 74.97412522 -18.81835938 77.0949707 C-18.52108092 94.67155907 -18.52108092 94.67155907 -22.08642578 100.28491211 C-24.6066326 102.5749555 -27.05896682 104.29751775 -30 106 C-31.07782374 106.84204038 -32.14544961 107.69756378 -33.1953125 108.57421875 C-45.58460644 117.51102945 -58.94079112 124.89740052 -72.234375 132.390625 C-88.36240189 141.48155705 -106.09583578 151.5765155 -113.15283203 169.68481445 C-115.05745538 177.13809414 -114.68905285 184.97542392 -114.75 192.625 C-114.77820248 194.41018468 -114.80813578 196.19534289 -114.83984375 197.98046875 C-114.91319995 202.32026453 -114.96308335 206.65974754 -115 211 C-118.15409891 209.79183598 -121.09135447 208.48035357 -124.01171875 206.78515625 C-124.76066406 206.35178955 -125.50960937 205.91842285 -126.28125 205.47192383 C-127.0753125 205.00681396 -127.869375 204.5417041 -128.6875 204.0625 C-129.51894531 203.57740967 -130.35039062 203.09231934 -131.20703125 202.5925293 C-157.09287184 187.43298727 -157.09287184 187.43298727 -168 179 C-168.84820312 178.35546875 -169.69640625 177.7109375 -170.5703125 177.046875 C-191.17633307 161.04097523 -201.36874129 141.36486723 -206 116 C-206.17060944 115.10735443 -206.34121887 114.21470886 -206.51699829 113.29501343 C-207.0195566 109.86658585 -207.12006156 106.63262889 -207.11352539 103.16845703 C-207.11367142 102.51409164 -207.11381744 101.85972626 -207.1139679 101.18553162 C-207.11327647 99.04292374 -207.10552052 96.90040501 -207.09765625 94.7578125 C-207.09578933 93.26423185 -207.09436672 91.77065058 -207.09336853 90.27706909 C-207.08956494 86.36114793 -207.07975324 82.44526432 -207.06866455 78.52935791 C-207.05840388 74.52738961 -207.05386096 70.52541519 -207.04882812 66.5234375 C-207.0381289 58.6822745 -207.0210786 50.84114193 -207 43 C-177.40522071 28.13146363 -148.71863734 16.07196411 -115 17 C-115 24.59 -115 32.18 -115 40 C-119.29 40.66 -123.58 41.32 -128 42 C-128.33 52.56 -128.66 63.12 -129 74 C-145.335 74.495 -145.335 74.495 -162 75 C-162.2475 81.2184375 -162.2475 81.2184375 -162.5 87.5625 C-162.60924805 89.50298218 -162.60924805 89.50298218 -162.72070312 91.48266602 C-162.80489505 95.85759095 -162.85556974 99.50905294 -160.640625 103.36889648 C-156.00595973 108.13561564 -151.19403797 108.82232117 -144.734375 108.97241211 C-142.88585937 108.95513062 -142.88585937 108.95513062 -141 108.9375 C-137.04 108.958125 -133.08 108.97875 -129 109 C-128.505 123.355 -128.505 123.355 -128 138 C-123.70610017 140.14694991 -117.96671421 139.18585465 -113.1965332 139.18530273 C-111.07417719 139.18748798 -108.95234205 139.2056452 -106.83007812 139.22460938 C-105.48177261 139.22754367 -104.13346463 139.22952823 -102.78515625 139.23046875 C-101.55676025 139.23457764 -100.32836426 139.23868652 -99.06274414 139.24291992 C-95.82701609 139.23652717 -95.82701609 139.23652717 -93 137 C-92.48853802 134.09386566 -92.48853802 134.09386566 -92.48828125 130.6796875 C-92.43861206 128.98175049 -92.43861206 128.98175049 -92.38793945 127.24951172 C-92.36304443 125.80592285 -92.33814941 124.36233398 -92.3125 122.875 C-92.209375 118.29625 -92.10625 113.7175 -92 109 C-81.44 108.67 -70.88 108.34 -60 108 C-60 97.11 -60 86.22 -60 75 C-70.89 74.67 -81.78 74.34 -93 74 C-93.33 63.44 -93.66 52.88 -94 42 C-96.97949852 40.36620684 -96.97949852 40.36620684 -105 40 C-105 32.41 -105 24.82 -105 17 C-88.15793627 16.65274095 -72.41685154 19.566628 -56 23 C-50.66398762 18.02932003 -50.66398762 18.02932003 -48.8125 11.3125 C-48.874375 10.219375 -48.93625 9.12625 -49 8 C-47.20437595 5.24670979 -45.94745078 3.47372539 -43 2 C-38.81855989 1.60552452 -36.69053952 1.54964814 -33.125 3.875 C-30.62545713 6.37454287 -30.09043206 7.32175958 -29.625 10.8125 C-30.12238755 15.04029414 -31.79381077 16.32817564 -35 19 C-37.7798816 20.3899408 -39.9186326 20.18488204 -43 20 C-44.98 19.01 -44.98 19.01 -47 18 C-47.99 22.455 -47.99 22.455 -49 27 C-47.63875 27.433125 -46.2775 27.86625 -44.875 28.3125 C-41.891726 29.28663029 -39.46457563 30.29296805 -36.6875 31.8125 C-34.15237842 33.25832746 -34.15237842 33.25832746 -31.9375 32.5 C-29.99873939 30.99902404 -28.29772665 29.39623176 -26.63671875 27.59375 C-25 26 -25 26 -22.45703125 24.09375 C-16.92711231 20.03430997 -16.92711231 20.03430997 -14.56640625 13.92578125 C-14.68672414 11.8445378 -14.83420745 9.76464718 -15.01171875 7.6875 C-15 5 -15 5 -14.01953125 3.125 C-10.00533862 -0.66319251 -5.1684767 -1.05653944 0 0 Z " fill="#0D7C3C" transform="translate(333,32)"/>
<path d="M0 0 C2.87029869 1.79393668 4.49131638 2.98263276 6 6 C6.34708476 11.29304255 6.51351894 14.73358414 3 19 C-0.14268673 21.00295699 -1.99276567 21.04167098 -5.625 20.5625 C-10.5657593 20.43094132 -12.73040266 21.92030179 -16.375 25.1875 C-19.51554874 28.27178483 -22.29815772 31.52708401 -25 35 C-23.79618552 37.49361571 -22.54571278 39.68143083 -21 42 C-20.195625 41.175 -19.39125 40.35 -18.5625 39.5 C-15.19195375 36.70452325 -12.44437276 36.24618046 -8.125 36.5234375 C-4.43861662 37.35016319 -3.01588256 38.87863345 -1 42 C-0.24874188 44.86633866 -0.19875996 47.14089886 -1 50 C-3.58128528 53.09754234 -5.10749053 54.6229483 -9.0390625 55.40625 C-13.4427554 55.60416878 -15.70690182 54.75156648 -19 52 C-18.9779248 53.31605225 -18.95584961 54.63210449 -18.93310547 55.98803711 C-18.86401479 60.90304139 -18.86129935 65.81628961 -18.87792969 70.73168945 C-18.8759912 72.85287526 -18.85640439 74.97412522 -18.81835938 77.0949707 C-18.52108092 94.67155907 -18.52108092 94.67155907 -22.08642578 100.28491211 C-24.6066326 102.5749555 -27.05896682 104.29751775 -30 106 C-31.07782374 106.84204038 -32.14544961 107.69756378 -33.1953125 108.57421875 C-45.58460644 117.51102945 -58.94079112 124.89740052 -72.234375 132.390625 C-88.36240189 141.48155705 -106.09583578 151.5765155 -113.15283203 169.68481445 C-115.05745538 177.13809414 -114.68905285 184.97542392 -114.75 192.625 C-114.77820248 194.41018468 -114.80813578 196.19534289 -114.83984375 197.98046875 C-114.91319995 202.32026453 -114.96308335 206.65974754 -115 211 C-115.66 210.67 -116.32 210.34 -117 210 C-117 200.43 -117 190.86 -117 181 C-118.32 180.67 -119.64 180.34 -121 180 C-121.0093457 179.34104736 -121.01869141 178.68209473 -121.02832031 178.00317383 C-121.28162425 160.11451423 -121.28162425 160.11451423 -126 143 C-126.33 142.01 -126.66 141.02 -127 140 C-126.07662842 139.98018066 -125.15325684 139.96036133 -124.2019043 139.93994141 C-120.77438826 139.86182261 -117.34731202 139.77513003 -113.92016602 139.68261719 C-112.43717788 139.64434653 -110.95409752 139.60949022 -109.47094727 139.578125 C-107.33836928 139.532432 -105.20642509 139.47444662 -103.07421875 139.4140625 C-101.79119873 139.3826416 -100.50817871 139.3512207 -99.1862793 139.31884766 C-95.84612541 139.23620772 -95.84612541 139.23620772 -93 137 C-92.48853802 134.09386566 -92.48853802 134.09386566 -92.48828125 130.6796875 C-92.43861206 128.98175049 -92.43861206 128.98175049 -92.38793945 127.24951172 C-92.36304443 125.80592285 -92.33814941 124.36233398 -92.3125 122.875 C-92.209375 118.29625 -92.10625 113.7175 -92 109 C-81.44 108.67 -70.88 108.34 -60 108 C-60 97.11 -60 86.22 -60 75 C-70.89 74.67 -81.78 74.34 -93 74 C-93.33 63.44 -93.66 52.88 -94 42 C-96.97949852 40.36620684 -96.97949852 40.36620684 -105 40 C-105 32.41 -105 24.82 -105 17 C-88.15793627 16.65274095 -72.41685154 19.566628 -56 23 C-50.66398762 18.02932003 -50.66398762 18.02932003 -48.8125 11.3125 C-48.874375 10.219375 -48.93625 9.12625 -49 8 C-47.20437595 5.24670979 -45.94745078 3.47372539 -43 2 C-38.81855989 1.60552452 -36.69053952 1.54964814 -33.125 3.875 C-30.62545713 6.37454287 -30.09043206 7.32175958 -29.625 10.8125 C-30.12238755 15.04029414 -31.79381077 16.32817564 -35 19 C-37.7798816 20.3899408 -39.9186326 20.18488204 -43 20 C-44.32 19.34 -45.64 18.68 -47 18 C-47.99 22.455 -47.99 22.455 -49 27 C-46.958125 27.6496875 -46.958125 27.6496875 -44.875 28.3125 C-41.891726 29.28663029 -39.46457563 30.29296805 -36.6875 31.8125 C-34.15237842 33.25832746 -34.15237842 33.25832746 -31.9375 32.5 C-29.99873939 30.99902404 -28.29772665 29.39623176 -26.63671875 27.59375 C-25 26 -25 26 -22.45703125 24.09375 C-16.92711231 20.03430997 -16.92711231 20.03430997 -14.56640625 13.92578125 C-14.68672414 11.8445378 -14.83420745 9.76464718 -15.01171875 7.6875 C-15 5 -15 5 -14.01953125 3.125 C-10.00533862 -0.66319251 -5.1684767 -1.05653944 0 0 Z " fill="#217BBF" transform="translate(333,32)"/>
<path d="M0 0 C6.11915746 3.85280285 11.71955471 8.1295742 17.28125 12.74609375 C19.83201403 14.86073577 22.40087099 16.94516911 25 19 C25.70125 19.556875 26.4025 20.11375 27.125 20.6875 C29.06989328 22.18161457 29.06989328 22.18161457 32 23 C33.75390625 24.8125 33.75390625 24.8125 35.5625 27 C37.92210327 29.94959179 37.92210327 29.94959179 41 32 C42.88472859 32.15344209 44.77427874 32.24959571 46.6640625 32.31640625 C48.34628906 32.37924805 48.34628906 32.37924805 50.0625 32.44335938 C51.238125 32.48267578 52.41375 32.52199219 53.625 32.5625 C54.80835938 32.60568359 55.99171875 32.64886719 57.2109375 32.69335938 C60.14050328 32.79967426 63.07015588 32.90170642 66 33 C66.029729 34.30203369 66.029729 34.30203369 66.06005859 35.63037109 C66.13809872 38.84726267 66.22478881 42.06377045 66.31738281 45.28027344 C66.35569327 46.67308572 66.39054259 48.06599765 66.421875 49.45898438 C66.46747907 51.45986308 66.52651623 53.46042146 66.5859375 55.4609375 C66.6173584 56.66540527 66.6487793 57.86987305 66.68115234 59.11083984 C66.70915226 62.1260018 66.70915226 62.1260018 69 64 C74.6899441 76.74202633 74.58691189 89.26084411 74 103 C72.0409166 101.55306277 70.09079245 100.09645732 68.15185547 98.62255859 C66.44084244 97.3324074 64.69810912 96.08434785 62.9453125 94.8515625 C58.41071795 91.00189659 55.79684646 85.46071163 52.875 80.375 C51.55256673 78.12134717 50.22832705 75.86875343 48.90234375 73.6171875 C48.24733887 72.50053711 47.59233398 71.38388672 46.91748047 70.23339844 C44.17186454 65.60353629 41.32265039 61.04385732 38.4375 56.5 C37.9739209 55.76700684 37.5103418 55.03401367 37.03271484 54.27880859 C33.76351983 49.1354171 30.39738353 44.05946078 27 39 C27.35118896 39.63671631 27.70237793 40.27343262 28.06420898 40.92944336 C32.17398922 48.41782418 36.13913719 55.97506488 40.0625 63.5625 C40.66126953 64.71685547 41.26003906 65.87121094 41.87695312 67.06054688 C51.63341285 85.90023854 51.63341285 85.90023854 53 90 C35.87627846 84.7818245 20.17558867 71.43064882 11.47265625 55.8671875 C1.93503222 37.29791419 -0.62259358 20.79923737 0 0 Z " fill="#5FB732" transform="translate(138,108)"/>
<path d="M0 0 C0.66 0 1.32 0 2 0 C0.106796 22.71844805 -9.28416141 42.62809225 -25 59 C-25.845625 59.886875 -26.69125 60.77375 -27.5625 61.6875 C-28.366875 62.450625 -29.17125 63.21375 -30 64 C-30.51175781 64.495 -31.02351563 64.99 -31.55078125 65.5 C-42.05992466 75.22152025 -54.71008659 82.11191671 -67.125 89.0625 C-67.72357819 89.39991211 -68.32215637 89.73732422 -68.93887329 90.08496094 C-70.66574875 91.05546477 -72.39918904 92.01425851 -74.1328125 92.97265625 C-75.14230957 93.53218994 -76.15180664 94.09172363 -77.19189453 94.66821289 C-79.84641356 95.92715927 -82.10612301 96.57840405 -85 97 C-85.10001808 92.91079921 -85.17200015 88.82208689 -85.21972656 84.73193359 C-85.23965342 83.34508844 -85.2668056 81.95832518 -85.30175781 80.57177734 C-85.54855575 70.51839093 -84.88644567 62.45709571 -78.921875 54.08203125 C-77.84679687 52.95861328 -77.84679687 52.95861328 -76.75 51.8125 C-76.04359375 51.05582031 -75.3371875 50.29914063 -74.609375 49.51953125 C-68.22870125 43.35855136 -61.98158748 38.51669784 -54.1875 34.25 C-52.31367973 33.19813459 -50.43998429 32.1460468 -48.56640625 31.09375 C-45.89455216 29.60667708 -43.22112211 28.12250825 -40.54638672 26.640625 C-19.00035788 15.05538627 -19.00035788 15.05538627 0 0 Z " fill="#E3A521" transform="translate(311,146)"/>
<path d="M0 0 C13 0 13 0 15.81420898 2.19995117 C16.38985596 3.24127197 16.96550293 4.28259277 17.55859375 5.35546875 C18.2696332 6.5557909 18.98177368 7.75546129 19.69482422 8.95458984 C20.060495 9.60651306 20.42616577 10.25843628 20.80291748 10.93011475 C22.99002927 14.71186777 25.47928205 18.29803284 27.91015625 21.92578125 C28.83287797 23.32717282 29.75346478 24.72997199 30.67211914 26.1340332 C35.44526377 33.42453301 40.22316639 40.71191673 45 48 C45.33 32.16 45.66 16.32 46 0 C50.62 0 55.24 0 60 0 C60 24.75 60 49.5 60 75 C46 75 46 75 43.07055664 72.32739258 C42.15782166 70.54728699 42.15782166 70.54728699 41.34765625 68.58203125 C40.65043418 67.19452904 39.9472069 65.81003216 39.23876953 64.42822266 C38.70452362 63.3367392 38.70452362 63.3367392 38.15948486 62.22320557 C36.17336183 58.41499735 33.73495972 54.92440043 31.30859375 51.38671875 C30.33466573 49.94117323 29.36135959 48.49520852 28.38867188 47.04882812 C26.89540193 44.84035916 25.4005491 42.63297138 23.9050293 40.42602539 C22.43158924 38.24878936 20.96362405 36.06794063 19.49609375 33.88671875 C19.0431041 33.22226242 18.59011444 32.55780609 18.12339783 31.87321472 C15 27.22602172 15 27.22602172 15 25 C14.34 25 13.68 25 13 25 C13 41.17 13 57.34 13 74 C8.71 74 4.42 74 0 74 C0 49.58 0 25.16 0 0 Z " fill="#115EA3" transform="translate(685,98)"/>
<path d="M0 0 C1.39456452 0.00667256 2.78911118 0.01863093 4.18359375 0.03515625 C5.2499707 0.04192383 5.2499707 0.04192383 6.33789062 0.04882812 C8.09899388 0.06064761 9.86005411 0.07858362 11.62109375 0.09765625 C11.96140625 1.00902344 12.30171875 1.92039062 12.65234375 2.859375 C18.08922706 17.40112345 23.58839869 31.91758262 29.24609375 46.375 C29.88998506 48.0224566 30.5338652 49.66991756 31.17773438 51.31738281 C32.46424173 54.60862475 33.75538972 57.89800015 35.04882812 61.18652344 C35.64598803 62.71283011 36.24299988 64.23919472 36.83984375 65.765625 C37.26112549 66.83139015 37.26112549 66.83139015 37.69091797 67.91868591 C39.62109375 72.87052227 39.62109375 72.87052227 39.62109375 75.09765625 C34.67109375 75.09765625 29.72109375 75.09765625 24.62109375 75.09765625 C23.61728459 72.30730579 22.61789925 69.5155077 21.62109375 66.72265625 C21.33492188 65.92859375 21.04875 65.13453125 20.75390625 64.31640625 C20.48320312 63.55585938 20.2125 62.7953125 19.93359375 62.01171875 C19.68222656 61.30998535 19.43085938 60.60825195 19.171875 59.88525391 C18.62109375 58.09765625 18.62109375 58.09765625 18.62109375 56.09765625 C8.72109375 56.09765625 -1.17890625 56.09765625 -11.37890625 56.09765625 C-11.70890625 57.41765625 -12.03890625 58.73765625 -12.37890625 60.09765625 C-12.84805347 61.74637361 -13.32779393 63.39210237 -13.81640625 65.03515625 C-14.06261719 65.86917969 -14.30882812 66.70320313 -14.5625 67.5625 C-15.38444318 70.11484987 -16.38304721 72.60800864 -17.37890625 75.09765625 C-22.32890625 75.09765625 -27.27890625 75.09765625 -32.37890625 75.09765625 C-30.40405143 69.04103462 -28.27575434 63.0866054 -25.94140625 57.16015625 C-25.65458984 56.42603516 -25.36777344 55.69191406 -25.07226562 54.93554688 C-23.53324101 51.00400739 -21.9725357 47.08168179 -20.3984375 43.1640625 C-18.37817779 38.12096059 -16.43177237 33.05168541 -14.50390625 27.97265625 C-13.98944946 26.62155762 -13.98944946 26.62155762 -13.46459961 25.24316406 C-11.81534283 20.90595985 -10.17669714 16.56522564 -8.5625 12.21484375 C-8.28712402 11.47379395 -8.01174805 10.73274414 -7.72802734 9.96923828 C-7.21409907 8.5831313 -6.70259843 7.19612114 -6.19384766 5.80810547 C-4.08503536 0.11806461 -4.08503536 0.11806461 0 0 Z " fill="#0A693A" transform="translate(394.37890625,97.90234375)"/>
<path d="M0 0 C2.04272229 0.95890381 3.87685957 1.83787407 5.671875 3.20703125 C6.166875 4.69203125 6.166875 4.69203125 6.671875 6.20703125 C7.331875 6.20703125 7.991875 6.20703125 8.671875 6.20703125 C8.671875 4.55703125 8.671875 2.90703125 8.671875 1.20703125 C12.301875 1.20703125 15.931875 1.20703125 19.671875 1.20703125 C19.79578611 8.8933326 19.88636519 16.57904814 19.9465332 24.26611328 C19.97162452 26.87917209 20.00570529 29.49216107 20.04907227 32.10498047 C20.10995646 35.86833966 20.13814017 39.63076815 20.16015625 43.39453125 C20.18596268 44.55629883 20.2117691 45.71806641 20.23835754 46.91503906 C20.2413017 55.49469038 18.33614165 60.33337794 12.484375 66.51953125 C2.86321323 72.29222831 -7.37645643 72.332443 -18.015625 69.70703125 C-19.79007337 69.22001619 -21.56238614 68.72473479 -23.328125 68.20703125 C-22.668125 64.90703125 -22.008125 61.60703125 -21.328125 58.20703125 C-20.11125 58.53703125 -18.894375 58.86703125 -17.640625 59.20703125 C-10.88135436 60.68528695 -2.72772261 62.14560568 3.48046875 58.60546875 C6.26221697 55.56091722 6.53732257 53.52114427 6.984375 49.45703125 C7.12488281 48.2865625 7.26539063 47.11609375 7.41015625 45.91015625 C7.49652344 45.018125 7.58289063 44.12609375 7.671875 43.20703125 C7.24519531 43.56796875 6.81851563 43.92890625 6.37890625 44.30078125 C0.14017173 48.93159451 -5.74624741 49.23213205 -13.328125 48.20703125 C-17.71727646 46.91162197 -19.97298432 44.70614788 -22.640625 40.95703125 C-26.75748551 32.58195879 -28.26107857 22.32943353 -25.41796875 13.32421875 C-20.64229633 3.03579263 -11.5862371 -3.94631901 0 0 Z " fill="#086738" transform="translate(550.328125,122.79296875)"/>
<path d="M0 0 C4.29 0 8.58 0 13 0 C13 24.42 13 48.84 13 74 C9.04 74 5.08 74 1 74 C0.67 72.35 0.34 70.7 0 69 C-0.5775 69.61875 -1.155 70.2375 -1.75 70.875 C-6.61177101 75.46667262 -11.20303014 75.61721551 -17.73046875 75.5 C-23.94622214 74.54944273 -26.7685811 70.98793983 -30.37109375 66.1640625 C-33.29868621 61.03824317 -33.37180812 55.69785686 -33.4375 49.9375 C-33.4478125 49.18170654 -33.458125 48.42591309 -33.46875 47.6472168 C-33.37036285 41.36478758 -32.09492819 35.91159512 -28.38671875 30.7578125 C-22.46382107 25.06638439 -17.67099014 23.82493875 -9.5625 23.5390625 C-7 24 -7 24 -1 28 C-0.67 18.76 -0.34 9.52 0 0 Z " fill="#105CA0" transform="translate(812,98)"/>
<path d="M0 0 C6.69037141 3.44179757 11.67361817 9.1458545 14.0625 16.3125 C15.0016635 31.7003327 15.0016635 31.7003327 11.0625 38.3125 C10.546875 39.34375 10.03125 40.375 9.5 41.4375 C4.99037391 46.75654616 -0.12871794 49.14386388 -7.0546875 49.83203125 C-14.58437563 50.26086889 -21.13598728 50.14164998 -27.203125 45.15625 C-34.55508711 37.34065064 -35.44685309 29.37417254 -35.3359375 18.859375 C-34.59377745 12.25269538 -31.71760854 7.62452904 -26.640625 3.40234375 C-18.51430674 -2.21437623 -9.39467934 -3.91576551 0 0 Z " fill="#0A693A" transform="translate(504.9375,123.6875)"/>
<path d="M0 0 C4.29 0 8.58 0 13 0 C13 10.23 13 20.46 13 31 C13.66 31 14.32 31 15 31 C15.33 30.01 15.66 29.02 16 28 C20.56177687 24.67370437 24.06089902 23.32137435 29.7265625 23.62109375 C33.59954546 24.26659091 36.99736245 25.43457734 40 28 C43.91156557 33.63038764 44.5571479 37.66768691 44.390625 44.43359375 C44.38496521 45.31153091 44.37930542 46.18946808 44.37347412 47.0940094 C44.35122853 49.8757468 44.30105591 52.65615732 44.25 55.4375 C44.22991965 57.33266358 44.21167158 59.22784752 44.1953125 61.12304688 C44.1514027 65.74920284 44.08245882 70.37437709 44 75 C39.71 75 35.42 75 31 75 C30.98541748 73.89487061 30.97083496 72.78974121 30.95581055 71.65112305 C30.89785734 67.55264861 30.82062481 63.45472533 30.73754883 59.35668945 C30.70428536 57.58269188 30.67625782 55.8085881 30.65356445 54.03442383 C30.62004398 51.48472824 30.56773135 48.93600708 30.51171875 46.38671875 C30.50532883 45.59287277 30.4989389 44.79902679 30.49235535 43.98112488 C30.40133203 39.77245508 30.40133203 39.77245508 28.71020508 36.00708008 C26.29979707 34.58767494 23.88294726 34.53566811 21.1328125 34.40625 C17.68510894 35.36605026 16.23069049 37.25020807 14 40 C13.4931354 42.90588609 13.27754608 45.24335126 13.29296875 48.14453125 C13.27784744 48.91431808 13.26272614 49.68410492 13.24714661 50.47721863 C13.20434737 52.92261218 13.1954399 55.3667696 13.1875 57.8125 C13.16434939 59.47594414 13.13898287 61.13935902 13.11132812 62.80273438 C13.04855353 66.86859846 13.01615751 70.93369425 13 75 C8.71 75 4.42 75 0 75 C0 50.25 0 25.5 0 0 Z " fill="#135FA1" transform="translate(836,98)"/>
<path d="M0 0 C4.61439919 2.4060182 7.59981594 5.69963187 9.9375 10.375 C10.02448228 13.29199274 10.05301923 16.18482548 10.03515625 19.1015625 C10.0337413 19.96437836 10.03232635 20.82719421 10.03086853 21.71615601 C10.02526188 24.4774723 10.01270827 27.23870812 10 30 C9.99498586 31.8697905 9.9904228 33.73958226 9.98632812 35.609375 C9.97529029 40.19794777 9.9580212 44.78646023 9.9375 49.375 C8.12507948 49.40187279 6.31254767 49.42133715 4.5 49.4375 C3.49066406 49.44910156 2.48132813 49.46070313 1.44140625 49.47265625 C-1.0625 49.375 -1.0625 49.375 -2.0625 48.375 C-2.10313832 46.70882885 -2.105221 45.04111905 -2.0625 43.375 C-2.7225 43.375 -3.3825 43.375 -4.0625 43.375 C-4.0625 44.035 -4.0625 44.695 -4.0625 45.375 C-10.01747891 49.31683001 -14.84744838 51.62742406 -22.0625 50.375 C-26.2709478 48.78690649 -29.16120392 46.81357314 -32.0625 43.375 C-33.60627354 38.74367939 -33.5525275 34.21135833 -33.0625 29.375 C-30.29552899 23.95634844 -24.84525194 21.64962294 -19.265625 19.76953125 C-16.10100932 19.20281816 -13.02376418 19.28276607 -9.8125 19.3125 C-7.91757812 19.32603516 -7.91757812 19.32603516 -5.984375 19.33984375 C-5.02015625 19.35144531 -4.0559375 19.36304688 -3.0625 19.375 C-3.165625 18.09625 -3.26875 16.8175 -3.375 15.5 C-3.43300781 14.78070313 -3.49101563 14.06140625 -3.55078125 13.3203125 C-3.93643036 10.97980784 -3.93643036 10.97980784 -7.0625 9.375 C-14.21567449 8.39826131 -21.30985215 10.12411738 -28.0625 12.375 C-28.7225 9.405 -29.3825 6.435 -30.0625 3.375 C-20.44149268 -1.51436438 -10.60281271 -4.30906891 0 0 Z " fill="#0F6F40" transform="translate(661.0625,123.625)"/>
<path d="M0 0 C4.62 0 9.24 0 14 0 C14.40863281 1.25039062 14.81726563 2.50078125 15.23828125 3.7890625 C17.43065189 10.37004104 19.87206502 16.85949427 22.30273438 23.35546875 C22.65013672 24.29777344 22.99753906 25.24007812 23.35546875 26.2109375 C23.82956177 27.48396729 23.82956177 27.48396729 24.31323242 28.78271484 C25 31 25 31 25 34 C25.66 34 26.32 34 27 34 C27.12568359 32.62908203 27.12568359 32.62908203 27.25390625 31.23046875 C28.04550138 25.70321487 30.0681486 20.54999251 31.9375 15.3125 C32.29779297 14.28060547 32.65808594 13.24871094 33.02929688 12.18554688 C34.51407569 7.97183756 35.99777886 4.00444228 38 0 C42.29 0 46.58 0 51 0 C49.03947789 6.02458314 46.90548347 11.92766249 44.5625 17.8125 C42.50665364 23.02448212 40.53576108 28.22859665 38.8125 33.5625 C37.47014099 37.71471218 35.90759242 41.63222474 34.05859375 45.58203125 C32.76068649 48.54662384 31.71271727 51.57730657 30.625 54.625 C28.28699445 60.75688573 25.75781304 66.03224851 19.76953125 69.16796875 C16.30711636 70.20815827 13.29674566 70.19246254 9.6875 70.125 C8.43324219 70.10695313 7.17898438 70.08890625 5.88671875 70.0703125 C4.93410156 70.04710937 3.98148438 70.02390625 3 70 C3.33 67.03 3.66 64.06 4 61 C5.4025 60.9175 6.805 60.835 8.25 60.75 C11.48688396 60.38921701 12.76877246 60.17193842 15.4375 58.1875 C15.953125 57.465625 16.46875 56.74375 17 56 C17.433125 55.401875 17.86625 54.80375 18.3125 54.1875 C20.03133935 48.71846571 17.45615461 43.18983981 15.234375 38.2109375 C14.95909973 37.58579254 14.68382446 36.96064758 14.40020752 36.31655884 C13.52494186 34.3323125 12.63820895 32.35348181 11.75 30.375 C10.59455767 27.78058309 9.44402188 25.1840325 8.296875 22.5859375 C7.87758728 21.63663361 7.87758728 21.63663361 7.4498291 20.66815186 C0 3.67694078 0 3.67694078 0 0 Z " fill="#0B693B" transform="translate(576,123)"/>
<path d="M0 0 C0.99 0.495 0.99 0.495 2 1 C1.50371094 1.41507813 1.00742187 1.83015625 0.49609375 2.2578125 C-4.02713067 6.36047146 -6.76947924 10.1825128 -9.3125 15.75 C-18.01235378 34.66228424 -36.20061038 44.6600488 -53.85742188 53.98046875 C-61.36754092 57.95692484 -66.90140566 62.15166079 -72 69 C-72.71671875 69.89847656 -73.4334375 70.79695313 -74.171875 71.72265625 C-76.4987722 75.8941664 -76.6624485 79.17905564 -76.75 83.875 C-76.77964844 84.65875 -76.80929688 85.4425 -76.83984375 86.25 C-76.909946 88.16612807 -76.95730658 90.08306537 -77 92 C-77.33 92 -77.66 92 -78 92 C-78.10001808 87.91079921 -78.17200015 83.82208689 -78.21972656 79.73193359 C-78.23965342 78.34508844 -78.2668056 76.95832518 -78.30175781 75.57177734 C-78.54855575 65.51839093 -77.88644567 57.45709571 -71.921875 49.08203125 C-70.84679687 47.95861328 -70.84679687 47.95861328 -69.75 46.8125 C-69.04359375 46.05582031 -68.3371875 45.29914063 -67.609375 44.51953125 C-61.22878294 38.35863023 -54.98178089 33.51628179 -47.1875 29.25 C-45.32144408 28.20342895 -43.45556229 27.15654737 -41.58984375 26.109375 C-39.72672194 25.07263009 -37.86344502 24.03616387 -36 23 C-23.45769911 15.99763557 -11.58654021 8.50075229 0 0 Z " fill="#EFBD2C" transform="translate(304,151)"/>
<path d="M0 0 C0 3.96 0 7.92 0 12 C-2.3203125 12.0928125 -2.3203125 12.0928125 -4.6875 12.1875 C-8.67274925 12.57134837 -9.81054793 12.84921162 -13.0625 15.4375 C-16.09415193 19.44710416 -16.16881035 21.73955199 -16.31640625 26.7578125 C-16.33718735 27.42086395 -16.35796844 28.08391541 -16.37937927 28.76705933 C-16.44479231 30.88626694 -16.50372105 33.005599 -16.5625 35.125 C-16.60569309 36.56121081 -16.64930764 37.99740902 -16.69335938 39.43359375 C-16.80046499 42.95559594 -16.90175575 46.47773825 -17 50 C-20.96 50 -24.92 50 -29 50 C-29 33.83 -29 17.66 -29 1 C-25.04 1 -21.08 1 -17 1 C-16.67 2.98 -16.34 4.96 -16 7 C-15.2575 6.21625 -14.515 5.4325 -13.75 4.625 C-9.08791065 0.17482381 -6.46734065 -0.24874387 0 0 Z " fill="#076A38" transform="translate(468,122)"/>
<path d="M0 0 C4.29 0 8.58 0 13 0 C13 16.5 13 33 13 50 C8.71 50 4.42 50 0 50 C0 33.5 0 17 0 0 Z " fill="#1260A4" transform="translate(757,123)"/>
<path d="M0 0 C3.5924373 2.14017541 5.52503926 4.12259228 7 8 C7.24422617 10.67512852 7.37009454 13.20152389 7.375 15.875 C7.39949219 16.56980469 7.42398437 17.26460937 7.44921875 17.98046875 C7.47844322 23.15320068 6.27199509 26.04289403 3 30 C-1.03160965 32.68773977 -4.26423878 32.67415933 -9 32 C-13.11952289 29.63346557 -14.58861492 27.44986911 -16 23 C-16.3359375 19.44140625 -16.3359375 19.44140625 -16.375 15.5625 C-16.40335937 14.28503906 -16.43171875 13.00757813 -16.4609375 11.69140625 C-15.925968 7.40711659 -14.70893913 5.32016186 -12 2 C-7.97297943 -0.68468038 -4.7315637 -0.68187737 0 0 Z " fill="#F5F9F7" transform="translate(499,132)"/>
<path d="M0 0 C3.96 0 7.92 0 12 0 C12 16.17 12 32.34 12 49 C8.04 49 4.08 49 0 49 C0 32.83 0 16.66 0 0 Z " fill="#0A5AA2" transform="translate(891,123)"/>
<path d="M0 0 C2.73828125 1.359375 2.73828125 1.359375 5 4 C5.7532888 7.65590497 5.69742753 11.21713946 5.625 14.9375 C5.65400391 16.4215332 5.65400391 16.4215332 5.68359375 17.93554688 C5.65104185 22.7760139 5.6107526 25.20839347 2.5859375 29.12890625 C-1.21982527 31.88262282 -3.27385467 32.46334758 -8 32 C-12.0181449 29.53432017 -13.61114063 27.44069509 -15 23 C-16.6308788 7.97709722 -16.6308788 7.97709722 -12.5625 2.5 C-8.90905322 -0.79849105 -4.67158098 -1.32429165 0 0 Z " fill="#FAFBFC" transform="translate(807,132)"/>
<path d="M0 0 C3.4203866 1.17013226 3.91540482 1.87310723 6 5 C6.47499843 8.10887417 6.41627436 11.23360491 6.4375 14.375 C6.47037109 15.22578125 6.50324219 16.0765625 6.53710938 16.953125 C6.5759014 21.48121206 6.49203628 23.3775541 3.59765625 27.0390625 C-0.00562764 29.75913545 -2.37079823 30.45525783 -6.9609375 30.421875 C-9.46797458 29.90317767 -10.29819387 29.12399029 -11.9375 27.1875 C-15.8531103 21.13610226 -15.63893632 15.02829957 -15 8 C-12.36065875 0.91820319 -7.07540749 -0.70039387 0 0 Z " fill="#F5F9F7" transform="translate(552,132)"/>
<path d="M0 0 C2.87029869 1.79393668 4.49131638 2.98263276 6 6 C6.34708476 11.29304255 6.51351894 14.73358414 3 19 C-0.14268673 21.00295699 -1.99276567 21.04167098 -5.625 20.5625 C-10.5657593 20.43094132 -12.73040266 21.92030179 -16.375 25.1875 C-18.83448965 27.60292713 -21.00187217 30.00246818 -23.0859375 32.75 C-25 35 -25 35 -28.25 35.8125 C-29.1575 35.874375 -30.065 35.93625 -31 36 C-30.58971868 31.21338456 -28.50392916 28.99326684 -25 26 C-24.15695312 25.37480469 -23.31390625 24.74960937 -22.4453125 24.10546875 C-16.92908413 20.03091615 -16.92908413 20.03091615 -14.56640625 13.92578125 C-14.68672414 11.8445378 -14.83420745 9.76464718 -15.01171875 7.6875 C-15 5 -15 5 -14.01953125 3.125 C-10.00533862 -0.66319251 -5.1684767 -1.05653944 0 0 Z " fill="#0B7642" transform="translate(333,32)"/>
<path d="M0 0 C5.25414332 0.43066748 8.15287135 2.65287135 11.8125 6.3125 C12.28109716 11.27962985 11.97374524 14.38819556 8.8125 18.3125 C6.1142982 20.42730682 4.25528066 21.23713308 0.875 21.8125 C-3.43761712 21.10839925 -5.07606971 19.35157145 -8.1875 16.3125 C-9.79479993 13.09790014 -9.80680855 9.78861897 -9.1875 6.3125 C-6.75 3.375 -6.75 3.375 -4.1875 1.3125 C-3.1875 0.3125 -3.1875 0.3125 0 0 Z " fill="#F2F7FA" transform="translate(291.1875,70.6875)"/>
<path d="M0 0 C0.66 0 1.32 0 2 0 C3.42819399 3.94956413 4.85224928 7.90058797 6.27246094 11.85302734 C6.75634643 13.19783932 7.24136744 14.54224328 7.72753906 15.88623047 C8.42550666 17.81632453 9.11939898 19.74784137 9.8125 21.6796875 C10.23144531 22.84226074 10.65039062 24.00483398 11.08203125 25.20263672 C12 28 12 28 12 30 C4.74 30 -2.52 30 -10 30 C-8.17268207 22.7869029 -5.93969707 15.95469204 -3.18359375 9.04296875 C-2.02172571 6.05585587 -0.98875079 3.04826856 0 0 Z " fill="#EFF6F2" transform="translate(397,114)"/>
<path d="M0 0 C7.26 0 14.52 0 22 0 C22 9.57 22 19.14 22 29 C20.91719408 27.37579112 19.8416587 25.74613477 18.80859375 24.08984375 C14.05423871 16.62645451 8.29502705 10.14079317 1.9375 4 C0 2 0 2 0 0 Z " fill="#0C7640" transform="translate(182,141)"/>
<path d="M0 0 C3.05787867 1.99698199 4.56861144 3.35408673 5.5078125 6.9375 C5.8755163 11.15810015 5.28005736 12.66393117 2.5 16 C-1.41309419 18.71973922 -4.34149769 18.73944481 -9 18 C-11.9375 15.5625 -11.9375 15.5625 -14 13 C-14.33 12.67 -14.66 12.34 -15 12 C-14.76923077 4.96153846 -14.76923077 4.96153846 -12 1.5 C-7.89392784 -0.55303608 -4.50169167 -0.91987551 0 0 Z " fill="#0A7141" transform="translate(327,69)"/>
<path d="M0 0 C0.9242923 8.81500987 0.9242923 8.81500987 -2.4375 13.125 C-5.79659415 15.38039179 -8.98634226 15.52350477 -12.94921875 15.46875 C-15.49529124 14.88679057 -16.42456416 14.05830936 -18 12 C-18.5 9.125 -18.5 9.125 -18 6 C-15.78136672 3.1474715 -14.12250048 1.39439206 -10.6875 0.1875 C-7.11086525 -0.06203266 -3.58552439 -0.0607716 0 0 Z " fill="#EFF6F2" transform="translate(658,150)"/>
<path d="M0 0 C2.4375 1 2.4375 1 4 3 C4.45314453 6.17201171 4.70191508 7.99265696 4 11 C1.61542223 13.72523173 -0.00533395 14.75133349 -3.5 15.625 C-7.50308378 14.62422905 -8.85580635 12.40548404 -11 9 C-11 5.73344791 -10.54466247 3.90777078 -8.875 1.125 C-5.86703161 -0.67978104 -3.42137208 -0.36014443 0 0 Z " fill="#1360A5" transform="translate(767,99)"/>
<path d="M0 0 C2.5 1.5625 2.5 1.5625 4 4 C3.93913078 7.46954545 3.6274029 9.91947278 1.875 12.9375 C-1.18452459 14.6712306 -3.56817525 14.42145216 -7 14 C-9.4375 12.375 -9.4375 12.375 -11 10 C-11.60605429 6.36367425 -11.47161336 4.71685231 -9.4375 1.625 C-6.06489221 -0.62340519 -3.97487617 -0.56783945 0 0 Z " fill="#125CA3" transform="translate(901,100)"/>
<path d="M0 0 C0.33 0 0.66 0 1 0 C1.06058594 0.89203125 1.12117187 1.7840625 1.18359375 2.703125 C1.26738281 3.87359375 1.35117188 5.0440625 1.4375 6.25 C1.51871094 7.41015625 1.59992188 8.5703125 1.68359375 9.765625 C1.91901516 14.24586598 1.91901516 14.24586598 4 18 C4.66 17.34 5.32 16.68 6 16 C6 28.54 6 41.08 6 54 C5.34 53.67 4.68 53.34 4 53 C4 43.43 4 33.86 4 24 C2.68 23.67 1.36 23.34 0 23 C0 15.41 0 7.82 0 0 Z " fill="#328081" transform="translate(212,189)"/>
<path d="M0 0 C-0.46800711 4.05606165 -0.87953208 7.46588679 -3 11 C-4.65 11 -6.3 11 -8 11 C-8.375 8.875 -8.375 8.875 -8 6 C-3.44730679 0 -3.44730679 0 0 0 Z " fill="#12794F" transform="translate(286,47)"/>
<path d="M0 0 C3.82516038 3.46766876 6.45754712 7.45579194 9.25 11.75 C9.70890625 12.44738281 10.1678125 13.14476562 10.640625 13.86328125 C11.76465406 15.57274211 12.88291224 17.28599512 14 19 C13.67 19.66 13.34 20.32 13 21 C12.34 21 11.68 21 11 21 C9.53779721 18.43964079 8.08014847 15.8768644 6.625 13.3125 C6.2125 12.59126953 5.8 11.87003906 5.375 11.12695312 C3.31567728 7.48992349 1.41710948 3.94766212 0 0 Z " fill="#1A7F38" transform="translate(164,146)"/>
<path d="M0 0 C0 0.33 0 0.66 0 1 C-0.61520508 1.11593506 -1.23041016 1.23187012 -1.86425781 1.35131836 C-4.65973585 1.87883171 -7.45486976 2.40814703 -10.25 2.9375 C-11.21808594 3.11990234 -12.18617188 3.30230469 -13.18359375 3.49023438 C-14.11816406 3.66748047 -15.05273438 3.84472656 -16.015625 4.02734375 C-16.87446289 4.18968506 -17.73330078 4.35202637 -18.61816406 4.51928711 C-20.13625476 4.82567503 -21.64633525 5.17766107 -23.13964844 5.58813477 C-25.62536127 6.13844941 -27.55798013 5.61050497 -30 5 C-27.17031897 3.11354598 -26.03546458 2.65444762 -22.83203125 2.1484375 C-21.61483398 1.95507812 -21.61483398 1.95507812 -20.37304688 1.7578125 C-19.10557617 1.56832031 -19.10557617 1.56832031 -17.8125 1.375 C-16.98685547 1.2409375 -16.16121094 1.106875 -15.31054688 0.96875 C-10.14464916 0.17086509 -5.22568824 -0.13260109 0 0 Z " fill="#4BA65D" transform="translate(210,49)"/>
<path d="M0 0 C8.25 0.33 16.5 0.66 25 1 C25 1.33 25 1.66 25 2 C18.4 2.33 11.8 2.66 5 3 C4.67 3.66 4.34 4.32 4 5 C3.34 5 2.68 5 2 5 C1.34 3.35 0.68 1.7 0 0 Z " fill="#0F6EB4" transform="translate(206,172)"/>
<path d="M0 0 C0 0.66 0 1.32 0 2 C-3.63 2 -7.26 2 -11 2 C-11 1.34 -11 0.68 -11 0 C-9.54263913 -0.19491452 -8.08405407 -0.38069358 -6.625 -0.5625 C-5.81289063 -0.66691406 -5.00078125 -0.77132812 -4.1640625 -0.87890625 C-2 -1 -2 -1 0 0 Z " fill="#277752" transform="translate(671,171)"/>
<path d="M0 0 C0.33 0 0.66 0 1 0 C1 2.97 1 5.94 1 9 C-1.64 9 -4.28 9 -7 9 C-4.8614515 6.8614515 -3.86724686 6.57344937 -1 6 C-0.67 4.02 -0.34 2.04 0 0 Z " fill="#26943C" transform="translate(217,63)"/>
<path d="M0 0 C-0.8125 1.9375 -0.8125 1.9375 -2 4 C-2.99 4.33 -3.98 4.66 -5 5 C-5 7.64 -5 10.28 -5 13 C-5.33 13 -5.66 13 -6 13 C-6.62645012 4.85614849 -6.62645012 4.85614849 -4.125 1.4375 C-2 0 -2 0 0 0 Z " fill="#2A8656" transform="translate(324,33)"/>
<path d="M0 0 C0.66 0.33 1.32 0.66 2 1 C-0.31 3.31 -2.62 5.62 -5 8 C-5.33 7.01 -5.66 6.02 -6 5 C-4.02 3.35 -2.04 1.7 0 0 Z " fill="#E3B339" transform="translate(304,151)"/>
</svg>
